<svg id="Layer_1" height="512" viewBox="0 0 75 75" width="512" xmlns="http://www.w3.org/2000/svg" data-name="Layer 1"><path d="m42.583 41.95a4.272 4.272 0 0 1 -2.464-.78l-16.959-11.899a4.308 4.308 0 0 1 -1.051-5.993l.073-.1a.75.75 0 0 1 1.045-.183l22.773 15.977a.75.75 0 0 1 .184 1.043l-.072.1a4.306 4.306 0 0 1 -3.529 1.835zm-19.547-17.26a2.809 2.809 0 0 0 .986 3.354l16.958 11.9a2.81 2.81 0 0 0 3.489-.214z"/><path d="m43.817 39.1a.745.745 0 0 1 -.43-.136l-19.268-13.515a.75.75 0 0 1 -.183-1.045l1.056-1.504a12.533 12.533 0 0 1 17.439-3.057 12.533 12.533 0 0 1 3.057 17.437l-1.056 1.506a.75.75 0 0 1 -.615.314zm-18.223-14.448 18.041 12.658.626-.892a11.019 11.019 0 1 0 -18.041-12.658z"/><path d="m23.866 35.625a.75.75 0 0 1 -.508-1.3l1.1-1.017a.751.751 0 0 1 1.017 1.1l-1.1 1.016a.75.75 0 0 1 -.509.201z"/><path d="m18.817 40.277a.75.75 0 0 1 -.508-1.3l2.524-2.326a.75.75 0 1 1 1.017 1.1l-2.524 2.327a.752.752 0 0 1 -.509.199z"/><path d="m15.19 43.619a.75.75 0 0 1 -.508-1.3l1.1-1.016a.75.75 0 0 1 1.018 1.097l-1.1 1.017a.745.745 0 0 1 -.51.202z"/><path d="m29.218 39.422a.751.751 0 0 1 -.614-1.181l.862-1.228a.75.75 0 1 1 1.228.862l-.862 1.225a.748.748 0 0 1 -.614.322z"/><path d="m24.965 45.483a.75.75 0 0 1 -.613-1.18l2.126-3.031a.75.75 0 0 1 1.228.861l-2.127 3.031a.748.748 0 0 1 -.614.319z"/><path d="m21.977 49.742a.751.751 0 0 1 -.614-1.181l.862-1.228a.75.75 0 1 1 1.228.861l-.861 1.228a.751.751 0 0 1 -.615.32z"/><path d="m34.609 43.163a.751.751 0 0 1 -.691-1.04l.581-1.384a.75.75 0 0 1 1.383.58l-.582 1.381a.75.75 0 0 1 -.691.463z"/><path d="m31.952 49.493a.751.751 0 0 1 -.691-1.041l1.329-3.165a.75.75 0 0 1 1.383.581l-1.329 3.165a.751.751 0 0 1 -.692.46z"/><path d="m30.043 54.041a.75.75 0 0 1 -.69-1.041l.58-1.382a.75.75 0 1 1 1.383.581l-.581 1.383a.749.749 0 0 1 -.692.459z"/><path d="m59.81 62.25h-3.3a.75.75 0 0 1 -.75-.75v-44l-7.222.057a.222.222 0 0 0 -.159.072l-4.134 4.311a.749.749 0 0 1 -.975.092l-2.621-1.861a.749.749 0 0 1 -.117-1.12l4.368-4.738a5.06 5.06 0 0 1 3.635-1.563h7.279a4.752 4.752 0 0 1 4.746 4.75v44a.75.75 0 0 1 -.75.75zm-2.554-1.5h1.8v-43.25a3.251 3.251 0 0 0 -3.247-3.247h-7.275a3.541 3.541 0 0 0 -2.542 1.091l-3.784 4.1 1.4.992 3.682-3.838a1.722 1.722 0 0 1 1.246-.539h7.279a1.445 1.445 0 0 1 1.441 1.441z"/></svg>